# xmcd
#
# Track frame offsets:
#	150
#	12210
#	27267
#	40287
#	53265
#	64789
#	81250
#	98402
#	112497
#	128532
#	142142
#	158035
#	171437
#	187262
#	200097
#	215772
#
# Disc length: 3046 seconds
#
# Revision: 1
# Processed by: cddbd v1.5.2PL0 Copyright (c) Steve Scherf et al.
# Submitted via: audiograbber 1.83.01
#
DISCID=e80be410
DTITLE=Nat Stuckey - Pop A Top
DYEAR=1998
DGENRE=Country
TTITLE0=Pop A Top
TTITLE1=Living In Love
TTITLE2=Only Oklahoma Away
TTITLE3=43 And Lonely
TTITLE4=Sittin' And Thinkin'
TTITLE5=Rose Ellen
TTITLE6=The Fallen Angel
TTITLE7=Lover To Lover
TTITLE8=The Texas Promise
TTITLE9=The Best Is Yet To Go
TTITLE10=The Days Of Sand And Shovels
TTITLE11=Fool
TTITLE12=The Rebel
TTITLE13=Why You Been Gone So Long
TTITLE14=Night Lies
TTITLE15=One More Time
EXTD=
EXTT0=
EXTT1=
EXTT2=
EXTT3=
EXTT4=
EXTT5=
EXTT6=
EXTT7=
EXTT8=
EXTT9=
EXTT10=
EXTT11=
EXTT12=
EXTT13=
EXTT14=
EXTT15=
PLAYORDER=
